<?xml version="1.0" encoding="UTF-8" standalone="no"?>
<!-- Generator: Adobe Illustrator 24.1.2, SVG Export Plug-In . SVG Version: 6.00 Build 0)  -->

<svg
   version="1.2"
   id="svg12"
   inkscape:version="1.1 (c68e22c387, 2021-05-23)"
   sodipodi:docname="crashy_logo.svg"
   x="0px"
   y="0px"
   viewBox="0 0 289.79999 289.79999"
   overflow="visible"
   xml:space="preserve"
   width="289.79999"
   height="289.79999"
   xmlns:inkscape="http://www.inkscape.org/namespaces/inkscape"
   xmlns:sodipodi="http://sodipodi.sourceforge.net/DTD/sodipodi-0.dtd"
   xmlns="http://www.w3.org/2000/svg"
   xmlns:svg="http://www.w3.org/2000/svg"><defs
   id="defs386" />
<g
   id="g16"
   transform="translate(-51.950006,-47.2)">
	<g
   id="g14">
		<g
   id="g4">
			<polygon
   fill="#463323"
   points="300.5,238.8 194.7,300.2 194.8,259.4 300.6,198 "
   id="polygon2" />
		</g>
		<g
   id="g8">
			<polygon
   fill="#312318"
   points="194.7,300.2 88.3,238.8 88.4,198 194.8,259.4 "
   id="polygon6" />
		</g>
		<g
   id="g12">
			<polygon
   fill="#4e3927"
   points="194.8,259.4 88.4,198 194.2,136.6 300.6,198 "
   id="polygon10" />
		</g>
	</g>
</g>
<sodipodi:namedview
   bordercolor="#666666"
   borderopacity="1.0"
   id="namedview14"
   inkscape:current-layer="svg12"
   inkscape:cx="-81.375"
   inkscape:cy="103.49636"
   inkscape:pagecheckerboard="0"
   inkscape:pageopacity="0.0"
   inkscape:pageshadow="2"
   inkscape:window-height="1009"
   inkscape:window-maximized="1"
   inkscape:window-width="1920"
   inkscape:window-x="1912"
   inkscape:window-y="-8"
   inkscape:zoom="0.6328725"
   pagecolor="#ffffff"
   showgrid="false"
   width="547px"
   fit-margin-top="0"
   fit-margin-left="0"
   fit-margin-right="0"
   fit-margin-bottom="0">
	</sodipodi:namedview>
<g
   id="g33"
   transform="translate(-51.950006,-47.2)">
	<g
   id="g31">
		<g
   id="g21">
			<polygon
   fill="#463323"
   points="201.2,316.5 165.9,337 166,296.3 201.3,275.8 "
   id="polygon19" />
		</g>
		<g
   id="g25">
			<polygon
   fill="#312318"
   points="165.9,337 130.5,316.5 130.6,275.8 166,296.3 "
   id="polygon23" />
		</g>
		<g
   id="g29">
			<polygon
   fill="#4e3927"
   points="166,296.3 130.6,275.8 165.8,255.3 201.3,275.8 "
   id="polygon27" />
		</g>
	</g>
</g>
<g
   id="g49"
   transform="translate(-51.950006,-47.2)">
	<g
   id="g47">
		<g
   id="g37">
			<polygon
   fill="#463323"
   points="148.9,196.5 113.7,217 113.8,176.2 149,155.8 "
   id="polygon35" />
		</g>
		<g
   id="g41">
			<polygon
   fill="#312318"
   points="113.7,217 78.2,196.5 78.3,155.8 113.8,176.2 "
   id="polygon39" />
		</g>
		<g
   id="g45">
			<polygon
   fill="#4e3927"
   points="113.8,176.2 78.3,155.8 113.5,135.3 149,155.8 "
   id="polygon43" />
		</g>
	</g>
</g>
<g
   id="g65"
   transform="translate(-51.950006,-47.2)">
	<g
   id="g63">
		<g
   id="g53">
			<polygon
   fill="#463323"
   points="301.2,199 265.9,219.5 266,178.8 301.3,158.3 "
   id="polygon51" />
		</g>
		<g
   id="g57">
			<polygon
   fill="#312318"
   points="265.9,219.5 230.5,199 230.6,158.3 266,178.8 "
   id="polygon55" />
		</g>
		<g
   id="g61">
			<polygon
   fill="#4e3927"
   points="266,178.8 230.6,158.3 265.8,137.8 301.3,158.3 "
   id="polygon59" />
		</g>
	</g>
</g>
<g
   id="g81"
   transform="translate(-51.950006,-47.2)">
	<g
   id="g79">
		<g
   id="g69">
			<polygon
   fill="#463323"
   points="222.7,192.2 187.4,212.7 187.5,171.9 222.8,151.4 "
   id="polygon67" />
		</g>
		<g
   id="g73">
			<polygon
   fill="#312318"
   points="187.4,212.7 152,192.2 152.1,151.4 187.5,171.9 "
   id="polygon71" />
		</g>
		<g
   id="g77">
			<polygon
   fill="#4e3927"
   points="187.5,171.9 152.1,151.4 187.3,131 222.8,151.4 "
   id="polygon75" />
		</g>
	</g>
</g>
<g
   id="g97"
   transform="translate(-51.950006,-47.2)">
	<g
   id="g95">
		<g
   id="g85">
			<polygon
   fill="#463323"
   points="189.8,219 154.5,239.5 154.6,198.8 189.9,178.3 "
   id="polygon83" />
		</g>
		<g
   id="g89">
			<polygon
   fill="#312318"
   points="154.5,239.5 119,219 119.2,178.3 154.6,198.8 "
   id="polygon87" />
		</g>
		<g
   id="g93">
			<polygon
   fill="#4e3927"
   points="154.6,198.8 119.2,178.3 154.4,157.8 189.9,178.3 "
   id="polygon91" />
		</g>
	</g>
</g>
<g
   id="g113"
   transform="translate(-51.950006,-47.2)">
	<g
   id="g111">
		<g
   id="g101">
			<polygon
   fill="#463323"
   points="251.2,226.3 215.9,246.7 216,206 251.3,185.5 "
   id="polygon99" />
		</g>
		<g
   id="g105">
			<polygon
   fill="#312318"
   points="215.9,246.7 180.5,226.2 180.6,185.5 216,206 "
   id="polygon103" />
		</g>
		<g
   id="g109">
			<polygon
   fill="#4e3927"
   points="216,206 180.6,185.5 215.8,165 251.3,185.5 "
   id="polygon107" />
		</g>
	</g>
</g>
<g
   id="g143"
   transform="translate(-51.950006,-47.2)">
	<g
   id="g127">
		<g
   id="g117">
			<polygon
   fill="#312318"
   points="155.6,108.5 155.5,88.1 190.8,108.6 190.8,129 "
   id="polygon115" />
		</g>
		<g
   id="g121">
			<polygon
   fill="#4e3927"
   points="155.5,88.1 191,67.6 226.2,88.1 190.8,108.6 "
   id="polygon119" />
		</g>
		<g
   id="g125">
			<polygon
   fill="#463323"
   points="226.3,108.5 190.8,129 190.8,108.6 226.2,88.1 "
   id="polygon123" />
		</g>
	</g>
	<g
   id="g141">
		<g
   id="g131">
			<polygon
   fill="#35581f"
   points="155.5,88.1 155.5,67.7 190.7,88.2 190.8,108.6 "
   id="polygon129" />
		</g>
		<g
   id="g135">
			<polygon
   fill="#568d32"
   points="155.5,67.7 190.9,47.2 226.2,67.7 190.7,88.2 "
   id="polygon133" />
		</g>
		<g
   id="g139">
			<polygon
   fill="#4d7f2d"
   points="226.2,88.1 190.8,108.6 190.7,88.2 226.2,67.7 "
   id="polygon137" />
		</g>
	</g>
</g>
<g
   id="g173"
   transform="translate(-51.950006,-47.2)">
	<g
   id="g157">
		<g
   id="g147">
			<polygon
   fill="#312318"
   points="189.6,141.5 189.5,121.1 224.8,141.6 224.8,162 "
   id="polygon145" />
		</g>
		<g
   id="g151">
			<polygon
   fill="#4e3927"
   points="189.5,121.1 225,100.7 260.2,121.1 224.8,141.6 "
   id="polygon149" />
		</g>
		<g
   id="g155">
			<polygon
   fill="#463323"
   points="260.3,141.5 224.8,162 224.8,141.6 260.2,121.1 "
   id="polygon153" />
		</g>
	</g>
	<g
   id="g171">
		<g
   id="g161">
			<polygon
   fill="#35581f"
   points="189.5,121.1 189.5,100.8 224.7,121.2 224.8,141.6 "
   id="polygon159" />
		</g>
		<g
   id="g165">
			<polygon
   fill="#568d32"
   points="189.5,100.8 224.9,80.3 260.2,100.8 224.7,121.2 "
   id="polygon163" />
		</g>
		<g
   id="g169">
			<polygon
   fill="#4d7f2d"
   points="260.2,121.1 224.8,141.6 224.7,121.2 260.2,100.8 "
   id="polygon167" />
		</g>
	</g>
</g>
<g
   id="g203"
   transform="translate(-51.950006,-47.2)">
	<g
   id="g187">
		<g
   id="g177">
			<polygon
   fill="#312318"
   points="227.1,166.5 227,146.1 262.3,166.6 262.3,187 "
   id="polygon175" />
		</g>
		<g
   id="g181">
			<polygon
   fill="#4e3927"
   points="227,146.1 262.5,125.7 297.7,146.1 262.3,166.6 "
   id="polygon179" />
		</g>
		<g
   id="g185">
			<polygon
   fill="#463323"
   points="297.8,166.5 262.3,187 262.3,166.6 297.7,146.1 "
   id="polygon183" />
		</g>
	</g>
	<g
   id="g201">
		<g
   id="g191">
			<polygon
   fill="#35581f"
   points="227,146.1 227,125.8 262.2,146.2 262.3,166.6 "
   id="polygon189" />
		</g>
		<g
   id="g195">
			<polygon
   fill="#568d32"
   points="227,125.8 262.4,105.3 297.7,125.8 262.2,146.2 "
   id="polygon193" />
		</g>
		<g
   id="g199">
			<polygon
   fill="#4d7f2d"
   points="297.7,146.1 262.3,166.6 262.2,146.2 297.7,125.8 "
   id="polygon197" />
		</g>
	</g>
</g>
<g
   id="g233"
   transform="translate(-51.950006,-47.2)">
	<g
   id="g217">
		<g
   id="g207">
			<polygon
   fill="#312318"
   points="119.2,131.6 119.1,111.2 154.3,131.7 154.4,152 "
   id="polygon205" />
		</g>
		<g
   id="g211">
			<polygon
   fill="#4e3927"
   points="119.1,111.2 154.6,90.7 189.8,111.2 154.3,131.7 "
   id="polygon209" />
		</g>
		<g
   id="g215">
			<polygon
   fill="#463323"
   points="189.9,131.6 154.4,152 154.3,131.7 189.8,111.2 "
   id="polygon213" />
		</g>
	</g>
	<g
   id="g231">
		<g
   id="g221">
			<polygon
   fill="#35581f"
   points="119.1,111.2 119,90.8 154.3,111.3 154.3,131.7 "
   id="polygon219" />
		</g>
		<g
   id="g225">
			<polygon
   fill="#568d32"
   points="119,90.8 154.5,70.3 189.8,90.8 154.3,111.3 "
   id="polygon223" />
		</g>
		<g
   id="g229">
			<polygon
   fill="#4d7f2d"
   points="189.8,111.2 154.3,131.7 154.3,111.3 189.8,90.8 "
   id="polygon227" />
		</g>
	</g>
</g>
<g
   id="g263"
   transform="translate(-51.950006,-47.2)">
	<g
   id="g247">
		<g
   id="g237">
			<polygon
   fill="#312318"
   points="80.6,154 80.5,133.6 115.7,154.1 115.8,174.5 "
   id="polygon235" />
		</g>
		<g
   id="g241">
			<polygon
   fill="#4e3927"
   points="80.5,133.6 116,113.2 151.2,133.6 115.7,154.1 "
   id="polygon239" />
		</g>
		<g
   id="g245">
			<polygon
   fill="#463323"
   points="151.3,154 115.8,174.5 115.7,154.1 151.2,133.6 "
   id="polygon243" />
		</g>
	</g>
	<g
   id="g261">
		<g
   id="g251">
			<polygon
   fill="#35581f"
   points="80.5,133.6 80.5,113.3 115.7,133.7 115.7,154.1 "
   id="polygon249" />
		</g>
		<g
   id="g255">
			<polygon
   fill="#568d32"
   points="80.5,113.3 115.9,92.8 151.2,113.3 115.7,133.7 "
   id="polygon253" />
		</g>
		<g
   id="g259">
			<polygon
   fill="#4d7f2d"
   points="151.2,133.6 115.7,154.1 115.7,133.7 151.2,113.3 "
   id="polygon257" />
		</g>
	</g>
</g>
<g
   id="g293"
   transform="translate(-51.950006,-47.2)">
	<g
   id="g277">
		<g
   id="g267">
			<polygon
   fill="#312318"
   points="61.8,281.5 61.8,261.2 97,281.6 97.1,302 "
   id="polygon265" />
		</g>
		<g
   id="g271">
			<polygon
   fill="#4e3927"
   points="61.8,261.2 97.2,240.7 132.5,261.2 97,281.6 "
   id="polygon269" />
		</g>
		<g
   id="g275">
			<polygon
   fill="#463323"
   points="132.5,281.5 97.1,302 97,281.6 132.5,261.2 "
   id="polygon273" />
		</g>
	</g>
	<g
   id="g291">
		<g
   id="g281">
			<polygon
   fill="#35581f"
   points="61.8,261.2 61.7,240.8 97,261.3 97,281.6 "
   id="polygon279" />
		</g>
		<g
   id="g285">
			<polygon
   fill="#568d32"
   points="61.7,240.8 97.2,220.3 132.4,240.8 97,261.3 "
   id="polygon283" />
		</g>
		<g
   id="g289">
			<polygon
   fill="#4d7f2d"
   points="132.5,261.2 97,281.6 97,261.3 132.4,240.8 "
   id="polygon287" />
		</g>
	</g>
</g>
<g
   id="g323"
   transform="translate(-51.950006,-47.2)">
	<g
   id="g307">
		<g
   id="g297">
			<polygon
   fill="#463323"
   points="314.2,264.8 279,285.2 279.1,244.5 314.3,224 "
   id="polygon295" />
		</g>
		<g
   id="g301">
			<polygon
   fill="#312318"
   points="279,285.2 261.2,275 261.3,234.2 279.1,244.5 "
   id="polygon299" />
		</g>
		<g
   id="g305">
			<polygon
   fill="#4e3927"
   points="279.1,244.5 261.3,234.2 296.6,213.8 314.3,224 "
   id="polygon303" />
		</g>
	</g>
	<g
   id="g321">
		<g
   id="g311">
			<polygon
   fill="#4d7f2d"
   points="331.9,275 296.7,295.5 296.8,254.7 332,234.2 "
   id="polygon309" />
		</g>
		<g
   id="g315">
			<polygon
   fill="#36581f"
   points="296.7,295.5 279,285.2 279.1,244.5 296.8,254.7 "
   id="polygon313" />
		</g>
		<g
   id="g319">
			<polygon
   fill="#568d32"
   points="296.8,254.7 279.1,244.5 314.3,224 332,234.2 "
   id="polygon317" />
		</g>
	</g>
</g>
<g
   id="g353"
   transform="translate(-51.950006,-47.2)">
	<g
   id="g337">
		<g
   id="g327">
			<polygon
   fill="#463323"
   points="254.9,296.3 219.7,316.8 219.8,276 255,255.5 "
   id="polygon325" />
		</g>
		<g
   id="g331">
			<polygon
   fill="#312318"
   points="219.7,316.8 202,306.5 202.1,265.8 219.8,276 "
   id="polygon329" />
		</g>
		<g
   id="g335">
			<polygon
   fill="#4e3927"
   points="219.8,276 202.1,265.8 237.3,245.3 255,255.5 "
   id="polygon333" />
		</g>
	</g>
	<g
   id="g351">
		<g
   id="g341">
			<polygon
   fill="#4d7f2d"
   points="272.7,306.5 237.4,327 237.5,286.3 272.8,265.8 "
   id="polygon339" />
		</g>
		<g
   id="g345">
			<polygon
   fill="#36581f"
   points="237.4,327 219.7,316.8 219.8,276 237.5,286.3 "
   id="polygon343" />
		</g>
		<g
   id="g349">
			<polygon
   fill="#568d32"
   points="237.5,286.3 219.8,276 255,255.5 272.8,265.8 "
   id="polygon347" />
		</g>
	</g>
</g>
<g
   id="g383"
   transform="translate(-51.950006,-47.2)">
	<g
   id="g367">
		<g
   id="g357">
			<polygon
   fill="#312318"
   points="142.4,167.2 142.4,146.8 177.6,167.3 177.7,187.7 "
   id="polygon355" />
		</g>
		<g
   id="g361">
			<polygon
   fill="#4e3927"
   points="142.4,146.8 177.8,126.3 213.1,146.8 177.6,167.3 "
   id="polygon359" />
		</g>
		<g
   id="g365">
			<polygon
   fill="#463323"
   points="213.1,167.2 177.7,187.7 177.6,167.3 213.1,146.8 "
   id="polygon363" />
		</g>
	</g>
	<g
   id="g381">
		<g
   id="g371">
			<polygon
   fill="#35581f"
   points="142.4,146.8 142.3,126.4 177.5,146.9 177.6,167.3 "
   id="polygon369" />
		</g>
		<g
   id="g375">
			<polygon
   fill="#568d32"
   points="142.3,126.4 177.8,106 213,126.4 177.5,146.9 "
   id="polygon373" />
		</g>
		<g
   id="g379">
			<polygon
   fill="#4d7f2d"
   points="213.1,146.8 177.6,167.3 177.5,146.9 213,126.4 "
   id="polygon377" />
		</g>
	</g>
</g>
</svg>
