<?xml version="1.0" encoding="UTF-8"?>
<svg version="1.1" viewBox="0 0 72.676 72.676" xmlns="http://www.w3.org/2000/svg">
  <path d="m62.417 33.103v-4.702h-47.444v4.702h-14.961s-0.427 8.122 3.847 11.968c4.69 4.222 11.114 5.984 11.114 5.984v2.992h8.369c0.545 0.539 0.955 1.341 0.955 2.546 0 2.117-1.43 2.92-2.515 3.225h-6.81v11.113h47.445v-11.113h-7.907s-1.07-11.327 7.906-17.738c3.698-2.643 10.259-3.848 10.259-3.848v-5.129h-10.26zm-32.36-7.56 11.588-2.356-0.52-7.646 22.502-3.5-1.977-9.293-21.856 6.165-2.406-6.889-11.586 2.357 1.15 10.788 3.106 10.374zm-15.213-12.339 9.167 12h2.833l-5.25-10.208 2.27 0.065-4.52-11.523-7.5 0.333 5.167 9.167zm-5.668-2.666-4.666 0.166 16.167 14zm2.667-2.542-3.75-6.25h-4.625l5.125 6.25zm4 17.208-6.5-3.958-1.688 3.958z"/>
</svg>
