<?xml version="1.0" encoding="UTF-8"?>
<svg version="1.1" viewBox="0 0 651 651" xmlns="http://www.w3.org/2000/svg">
  <path d="m53.88 159 272 82.6v408l-272-120z" fill="#5b422d"/>
  <path d="m53.8 198 17 7.5v-25.5l17 7.5v25.5l34 15-7e-3 25.5 17 7.5-7e-3 -76.5 17 7.48-0.03 51 17 7.5 3e-3 -25.5 17 7.5 0.012 51 17 7.5 0.07-25.5 16.9 7.48v25.5l17 7.5v-25.5l17 7.52-0.01-25.5 17 7.5-8e-3 25.5 34 15-0.01-25.5 17 7.5v-51l-272-120z" fill="#64a43a" stroke="#64a43a"/>
  <path d="m54 121 272 120 271-120-272-120z" fill="#5a9a30" stroke="#5a9a30"/>
  <path d="m597.3 172-272 69.2v408l272-120z" fill="#4f3624" stroke="#4f3624"/>
  <path d="m597.3 122 0.154 50.9-17 7.5 0.073 25.5-34 15-0.073-25.5-16.9 7.47 3e-3 25.5-17 7.5-3e-3 25.5-17 7.5-3e-3 -25.5-17 7.5-0.2 25.6-16.8 7.42 3e-3 -51-17 7.54 8e-3 25.5-16.3 7.2-0.655-50.7-17 7.5-7e-3 76.5-17 7.5v-25.5l-34 15v-25.5l-17 7.5v25.5l-17 7.5-4e-3 -76.5z" fill="#3b6121" stroke="#3b6121"/>
</svg>
