<?xml version="1.0" encoding="UTF-8"?>
<svg width="362.74" height="362.74" version="1.1" viewBox="0 0 95.976 95.976" xmlns="http://www.w3.org/2000/svg" >
<defs>
<style>.cls-1{fill:none;}.cls-2{fill:#fff;}.cls-3{fill:#fa0;}.cls-4{fill:#aaa;}.cls-5{fill:#55f;}.cls-6{fill:#5f5;}.cls-7{fill:#67cbdf;}.cls-8{fill:#f55;}.cls-9{fill:#f5f;}.cls-10{fill:#ff5;}.cls-11{fill:#444;}</style>
</defs>
<metadata>
</metadata>
<g transform="translate(-17.803 -6.7701)">
<g transform="translate(201.26 257.97)" stroke-width="8.4667">
<path d="m-177.38-193.89 55.88-55.88c6.985 6.985 19.162 19.162 27.94 27.94 2.5798 2.5798 2.5798 6.7335-1e-5 9.3133l-55.88 55.88-27.94-27.94c-2.5798-2.5798-2.5798-6.7335 0-9.3133z" fill="#c8b7b7"/>
<path d="m-135.47-170.6c0.10804 0.10804-10.169 9.752-10.074 9.869 0.027 0.0332-1.2987 2.0803 1.5535 0.79076 1.6935-0.76567 3.6948-1.9209 5.3728-3.9381 2.5488-3.0641 3.6954-6.0572 3.7336-5.9984 1.7844 2.7392 0.60984 7.3941-2.9146 10.918-3.8577 3.8577-9.0699 4.9001-11.642 2.3283-2.5718-2.5718-1.5294-7.784 2.3283-11.642s9.0699-4.9001 11.642-2.3283z" fill="#ac9393"/>
<path d="m-121.5-249.77a6.6146 9.7896 45 0 1-2.2451 11.6 6.6146 9.7896 45 0 1-11.6 2.2451 6.6146 9.7896 45 0 1 2.2451-11.6 6.6146 9.7896 45 0 1 11.599-2.2451z" fill="#ac9393"/>
</g>
</g>
</svg>
