<?xml version="1.0" encoding="UTF-8" standalone="no"?>
<svg
   viewBox="0 0 72.67584 72.676004"
   width="72.676003"
   height="72.676003"
   version="1.1"
   id="svg4"
   sodipodi:docname="forge_logo.svg"
   inkscape:version="1.1 (c68e22c387, 2021-05-23)"
   xmlns:inkscape="http://www.inkscape.org/namespaces/inkscape"
   xmlns:sodipodi="http://sodipodi.sourceforge.net/DTD/sodipodi-0.dtd"
   xmlns="http://www.w3.org/2000/svg"
   xmlns:svg="http://www.w3.org/2000/svg">
  <defs
     id="defs8" />
  <sodipodi:namedview
     id="namedview6"
     pagecolor="#ffffff"
     bordercolor="#666666"
     borderopacity="1.0"
     inkscape:pageshadow="2"
     inkscape:pageopacity="0.0"
     inkscape:pagecheckerboard="0"
     showgrid="false"
     inkscape:zoom="5.9550483"
     inkscape:cx="4.2820812"
     inkscape:cy="25.272675"
     inkscape:window-width="1920"
     inkscape:window-height="1009"
     inkscape:window-x="1912"
     inkscape:window-y="-8"
     inkscape:window-maximized="1"
     inkscape:current-layer="svg4" />
  <path
     d="m 62.417,33.102502 v -4.702 H 14.973 v 4.702 H 0.012 c 0,0 -0.427,8.122 3.847,11.968 4.69,4.222 11.114,5.984 11.114,5.984 v 2.992 h 8.369 c 0.545,0.539 0.955,1.341 0.955,2.546 0,2.117 -1.43,2.92 -2.515,3.225 h -6.81 v 11.113 h 47.445 v -11.113 H 54.51 c 0,0 -1.07,-11.327 7.906,-17.738 3.698,-2.643 10.259,-3.848 10.259,-3.848 v -5.129 h -10.26 z m -32.36,-7.56 11.588,-2.356 -0.52,-7.646 22.502,-3.5 -1.977,-9.293 -21.856,6.165 -2.406,-6.889 -11.586,2.357 1.15,10.788 3.106,10.374 z m -15.213,-12.339 9.167,12 h 2.833 l -5.25,-10.208 2.27,0.065 -4.52,-11.523 -7.5,0.333 5.167,9.167 z m -5.668,-2.666 -4.666,0.166 16.167,14 z m 2.667,-2.542 -3.75,-6.25 H 3.468 l 5.125,6.25 z m 4,17.208 -6.5,-3.958 -1.688,3.958 z"
     id="path2" />
</svg>
