<?xml version="1.0" encoding="UTF-8"?>
<svg version="1.0" viewBox="0 0 350.83 350.83" xmlns="http://www.w3.org/2000/svg">
  <metadata>
  </metadata>
  <g transform="translate(3356 917.07)">
    <g transform="matrix(2.4299 0 0 2.4299 -3488.7 -919.76)">
      <g transform="translate(6.144)">
        <g>
          <path d="m54.605 19.538h75.263c-22.752 41.61-20.107 60.822-19.968 60.671h24.576c-0.55632 2.2526-7.3806 27.66-0.768 46.847h-79.103z" fill="#8294c9"/>
          <path d="m186.7 127.06h-54.527c-6.6367-17.077 0.19044-44.594 0.768-46.847h-24.576c-0.16032 0.1512-0.88596-23.23 19.968-60.671h58.367z" fill="#c9d3ec"/>
          <polygon points="143.69 35.666 150.6 35.666 150.6 51.025 143.69 51.025"/>
          <polygon points="86.86 35.666 93.772 35.666 93.772 51.025 86.86 51.025" fill="#32438f"/>
          <path d="m126.8 100.94c-21.482 0.9192-36.361-2.6879-49.151-9.2158l-3.072 5.3759c12.714 7.4258 33.002 10.924 52.223 9.9838z" fill="#32438f"/>
          <path d="m136.01 145.49c-10.325-20.672-11.798-44.434-7.6798-61.439h-23.04c0.55332-36.116 18.964-66.119 33.023-82.942l4.6079 3.8399c-11.626 14.41-28.597 39.66-31.487 72.959h24.576c-1.932 6.9451-3.477 14.495-3.8399 22.272 14.111-1.3636 21.44-3.1445 31.487-8.4478l3.8399 5.3759c-9.0767 5.004-21.727 8.2784-35.327 9.2158 0.63792 12.149 3.3592 24.022 9.2159 36.095l-5.376 3.0719z"/>
        </g>
      </g>
    </g>
  </g>
</svg>
