<?xml version="1.0" encoding="UTF-8" standalone="no"?>
<svg
   width="651"
   height="651"
   version="1.1"
   id="svg12"
   sodipodi:docname="minecraft_cube.svg"
   inkscape:version="1.1 (c68e22c387, 2021-05-23)"
   xmlns:inkscape="http://www.inkscape.org/namespaces/inkscape"
   xmlns:sodipodi="http://sodipodi.sourceforge.net/DTD/sodipodi-0.dtd"
   xmlns="http://www.w3.org/2000/svg"
   xmlns:svg="http://www.w3.org/2000/svg">
  <defs
     id="defs16" />
  <sodipodi:namedview
     id="namedview14"
     pagecolor="#ffffff"
     bordercolor="#666666"
     borderopacity="1.0"
     inkscape:pageshadow="2"
     inkscape:pageopacity="0.0"
     inkscape:pagecheckerboard="0"
     showgrid="false"
     width="547px"
     inkscape:zoom="0.6328725"
     inkscape:cx="-19.751214"
     inkscape:cy="403.71481"
     inkscape:window-width="1920"
     inkscape:window-height="1009"
     inkscape:window-x="1912"
     inkscape:window-y="-8"
     inkscape:window-maximized="1"
     inkscape:current-layer="svg12" />
  <path
     d="m 53.88,159 272,82.6 v 408 l -272,-120 z"
     fill="#5b422d"
     id="path2" />
  <path
     d="m 53.8,198 17,7.5 V 180 l 17,7.5 V 213 l 34,15 -0.007,25.5 17,7.5 -0.007,-76.5 17,7.48 -0.03,51 17,7.5 0.003,-25.5 17,7.5 0.012,51 17,7.5 0.07,-25.5 16.9,7.48 v 25.5 l 17,7.5 v -25.5 l 17,7.52 -0.01,-25.5 17,7.5 -0.008,25.5 34,15 -0.01,-25.5 17,7.5 v -51 l -272,-120 z"
     fill="#64a43a"
     stroke="#64a43a"
     id="path4" />
  <path
     d="M 54,121 326,241 597,121 325,1 Z"
     fill="#5a9a30"
     stroke="#5a9a30"
     id="path6" />
  <path
     d="m 597.3,172 -272,69.2 v 408 l 272,-120 z"
     fill="#4f3624"
     stroke="#4f3624"
     id="path8" />
  <path
     d="m 597.3,122 0.154,50.9 -17,7.5 0.073,25.5 -34,15 -0.073,-25.5 -16.9,7.47 0.003,25.5 -17,7.5 -0.003,25.5 -17,7.5 -0.003,-25.5 -17,7.5 -0.2,25.6 -16.8,7.42 0.003,-51 -17,7.54 0.008,25.5 -16.3,7.2 -0.655,-50.7 -17,7.5 -0.007,76.5 -17,7.5 v -25.5 l -34,15 v -25.5 l -17,7.5 v 25.5 l -17,7.5 -0.004,-76.5 z"
     fill="#3b6121"
     stroke="#3b6121"
     id="path10" />
</svg>
